<svg width="28" height="21" viewBox="0 0 28 21" fill="none" xmlns="http://www.w3.org/2000/svg">
<path d="M25.8426 17.2066C25.8426 17.6565 25.6639 18.0879 25.3458 18.4061C25.0277 18.7242 24.5962 18.9029 24.1463 18.9029H3.78999C3.34009 18.9029 2.90861 18.7242 2.59049 18.4061C2.27236 18.0879 2.09363 17.6565 2.09363 17.2066V7.02843C2.09363 6.57853 2.27236 6.14705 2.59049 5.82893C2.90861 5.5108 3.34009 5.33207 3.78999 5.33207H5.77812C7.12713 5.33134 8.42065 4.79501 9.3744 3.84098L10.7824 2.43639C11.0996 2.11907 11.5296 1.94036 11.9783 1.93936H15.9546C16.4044 1.93946 16.8358 2.11824 17.1539 2.43639L18.5585 3.84098C19.0311 4.31378 19.5923 4.68881 20.21 4.94466C20.8276 5.20051 21.4896 5.33215 22.1581 5.33207H24.1463C24.5962 5.33207 25.0277 5.5108 25.3458 5.82893C25.6639 6.14705 25.8426 6.57853 25.8426 7.02843V17.2066ZM3.78999 3.63572C2.89019 3.63572 2.02724 3.99316 1.39098 4.62942C0.754724 5.26568 0.397278 6.12863 0.397278 7.02843V17.2066C0.397278 18.1064 0.754724 18.9693 1.39098 19.6056C2.02724 20.2418 2.89019 20.5993 3.78999 20.5993H24.1463C25.0461 20.5993 25.909 20.2418 26.5453 19.6056C27.1815 18.9693 27.539 18.1064 27.539 17.2066V7.02843C27.539 6.12863 27.1815 5.26568 26.5453 4.62942C25.909 3.99316 25.0461 3.63572 24.1463 3.63572H22.1581C21.2584 3.63553 20.3956 3.27795 19.7595 2.64165L18.3549 1.23707C17.7188 0.600768 16.856 0.243196 15.9563 0.243004H11.98C11.0803 0.243196 10.2175 0.600768 9.58136 1.23707L8.17677 2.64165C7.54066 3.27795 6.67785 3.63553 5.77812 3.63572H3.78999Z" fill="#CECECE"/>
<path d="M13.9681 15.5102C12.8434 15.5102 11.7647 15.0634 10.9694 14.2681C10.174 13.4728 9.72724 12.3941 9.72724 11.2693C9.72724 10.1446 10.174 9.06588 10.9694 8.27056C11.7647 7.47524 12.8434 7.02843 13.9681 7.02843C15.0929 7.02843 16.1716 7.47524 16.9669 8.27056C17.7622 9.06588 18.209 10.1446 18.209 11.2693C18.209 12.3941 17.7622 13.4728 16.9669 14.2681C16.1716 15.0634 15.0929 15.5102 13.9681 15.5102ZM13.9681 17.2066C15.5428 17.2066 17.0529 16.581 18.1664 15.4676C19.2798 14.3541 19.9054 12.844 19.9054 11.2693C19.9054 9.69467 19.2798 8.1845 18.1664 7.07105C17.0529 5.9576 15.5428 5.33207 13.9681 5.33207C12.3935 5.33207 10.8833 5.9576 9.76986 7.07105C8.65641 8.1845 8.03088 9.69467 8.03088 11.2693C8.03088 12.844 8.65641 14.3541 9.76986 15.4676C10.8833 16.581 12.3935 17.2066 13.9681 17.2066ZM5.48634 7.87661C5.48634 8.10156 5.39698 8.3173 5.23792 8.47636C5.07885 8.63543 4.86312 8.72479 4.63816 8.72479C4.41321 8.72479 4.19748 8.63543 4.03841 8.47636C3.87935 8.3173 3.78999 8.10156 3.78999 7.87661C3.78999 7.65166 3.87935 7.43592 4.03841 7.27686C4.19748 7.11779 4.41321 7.02843 4.63816 7.02843C4.86312 7.02843 5.07885 7.11779 5.23792 7.27686C5.39698 7.43592 5.48634 7.65166 5.48634 7.87661Z" fill="#CECECE"/>
</svg>
